<svg height="1146.667" viewBox="0 0 860 860" width="1146.667" xmlns="http://www.w3.org/2000/svg"><path d="m398 1c-88.3 7.4-168.5 39-237 93.6-17.5 13.9-52.5 48.9-66.4 66.4-51.7 64.9-81.9 138-92.3 223-1.3 11-1.7 22.1-1.7 46 0 33.7 1 46.3 6 74.8 27.2 155.4 138.4 283.9 288.8 333.6 68.2 22.6 143.5 27.5 214.6 14 74.4-14.1 143.7-47.5 200.5-96.7 13-11.2 39-37.5 49.6-50.2 21.3-25.4 41.3-56.2 55.9-86 22.3-45.8 35.2-90.3 41.7-143.5 2.4-20.5 2.5-71.6 0-92-10.4-85.9-40.3-157.7-93.1-224-13.2-16.6-48.6-51.9-65.6-65.4-64.6-51.5-138.4-82.1-222-92.1-15.8-1.9-63.2-2.8-79-1.5zm69.6 250.2c5.7 1.4 11.1 6.1 12.4 10.6 1.3 4.9 1.6 5.2 8 9.9 3 2.2 6.1 4.7 6.8 5.5 2.5 3.1 3.4 23.5 2.9 63.8-.4 21.7-1.1 49.8-1.8 62.5-2.2 45.7-.5 86 4.7 110.6l1.6 7.6-2.7 6.2c-4.4 9.7-15.4 18.6-26.7 21.7-6 1.6-15.9 1.9-17.3.5-.6-.5-2.8-1.1-5-1.3-3.5-.3-4.2-.8-6.4-4.7l-2.4-4.4-2.1 5.8c-1.2 3.4-3.6 7.4-5.5 9.3-7.6 7.6-28.7 14.3-45.6 14.5-9 .1-10.7-.2-16.3-2.8-10.3-4.6-16.8-13.5-21.8-30-2.6-8.5-2.8-10.1-2.8-28.5-.1-21.4 1-29.5 6.4-47.2 6.1-19.8 14.1-33.4 28.2-47.9 6.7-6.9 9.5-9 14.1-10.7 12.1-4.6 23.4-4.1 29.4 1.1l3.6 3.2-.6-7c-.3-3.9-1.5-14.9-2.6-24.5-5.4-47-5.4-85.4 0-103.4 1.6-5.5 3-7.8 7-11.8 9.3-9.3 20.6-12.1 34.5-8.6zm213.5 26.4c11.6 3.5 19.9 9.9 26.7 20.8 8.1 13 10.8 22.7 14.8 54.1 5.3 41.9 2.8 69.3-9.2 97.9-2 4.8-5.9 12.2-8.7 16.4-9.5 14.7-27.8 31.1-38.5 34.6-11.8 3.9-23.4 3.8-29.1-.3l-2.6-1.9.8 24.7c.9 27 .3 49.5-1.3 55.3-1.3 4.4-7.8 10.3-16.4 15-4.7 2.4-7.6 3.2-13.2 3.6-9 .6-13.4-.9-19.2-6.2s-8.6-9.8-11-17.8c-3.9-12.6-4.4-21-4.3-75.8.1-36-.4-59.9-1.4-76-1.8-28-1.9-45.6-.4-58.7 1.2-10.6 2.3-13.5 6.9-18.1 3.9-4 16.4-10.2 20.4-10.2 3 0 3.2-.3 5.5-7.5 5.9-18.8 19.2-32.1 43.6-43.6 16.9-8 25.8-9.5 36.6-6.3zm-437.4 48.5c4.8 2.4 7.6 4.7 9.8 7.7 2.9 4.2 3 4.9 3.3 16 .3 11.4-4.6 63.5-6.2 67.4-.5 1.2 2.1.1 8.1-3.2 4.8-2.8 9.5-5 10.4-5s4.2-.9 7.4-2c11.6-4 19.9-1.8 23.5 6.3 3.2 6.9 2.3 17.2-1.9 22.1-2.2 2.6-30.1 21.1-37.2 24.7l-5.9 2.9.1 16.3c0 8.9.4 24.1.9 33.7 3.5 69 3.4 107.6-.3 118.5s-25.7 15.8-40 9c-4.5-2.1-5.2-3.6-8.6-19-6.8-30.2-12.5-66.9-15.8-101.3-1.1-11.8-2.1-18.2-2.9-18.2-.6 0-2.6 1.1-4.5 2.5-13.9 10.1-16.5 10.9-24.3 7.1-6.6-3.3-10.4-8.4-11.3-15.3-.6-5.6.7-10.8 3.9-14.8 2.4-3.1 19.7-17.3 37.5-30.8 2.5-1.9 4.2-4 4.2-5.2 0-1.1-.9-7.9-2-15-1.3-8.1-2.2-20.3-2.5-32.5-.5-16.8-.3-21 1.4-30 4.5-23.6 4-22.4 12.6-30.2 4.2-3.8 7.6-7.5 7.6-8.2 0-4.7 7.6-7.8 18.3-7.3 6.4.3 8.9.9 14.4 3.8z"/><path d="m418.9 473.5c-3.4 1.9-7.6 8.3-9 14-1.7 6.7-.6 17.2 2.4 23.2 3.5 6.9 5.8 8.7 10.1 7.9 8.3-1.6 9.7-5.8 9-27.6-.7-19.6-.5-19-5.7-19-2.3.1-5.4.7-6.8 1.5zm226.8-115.6c-3.2 3.8-5.1 11.9-4.2 17.7.8 5.3-.6 10.1-4.8 16.8l-3.1 4.9v22.7l-.1 22.7 3.6 2.1 3.7 2.1 3.6-8c6.9-15.1 12.8-36.5 14.2-51.6.7-7.3-1.5-22.7-4.1-28.9-1.8-4.4-5.3-4.6-8.8-.5z"/></svg>